<svg xmlns="http://www.w3.org/2000/svg" width="22" height="30" viewBox="0 0 22 30"><path fill="none" stroke="#fff" stroke-linecap="round" stroke-linejoin="round" stroke-miterlimit="50" d="M8.2 7.25L6.5 11.5l2-1 .5 2 2-6"/><path fill="none" stroke="#fff" stroke-linecap="round" stroke-linejoin="round" stroke-miterlimit="50" d="M10.5 6.5l2 6 .53-2 1.97 1-1.7-4.25"/><path fill="none" stroke="#fff" stroke-linecap="round" stroke-linejoin="round" stroke-miterlimit="50" d="M11.5 6.11c1.1.89 3.38 2.49 5.82 2.39 1.5-.06 1.27-2.87 1.27-4s.91-4-.63-4c-1.38 0-4.06 1.23-5.94 2.88M9.34 3.38C7.46 1.73 4.78.5 3.4.5c-1.54 0-.63 2.88-.63 4S2.53 8.44 4 8.5c2.4.1 4.69-1.49 5.78-2.39"/><path fill="none" stroke="#fff" stroke-linecap="round" stroke-linejoin="round" stroke-miterlimit="50" d="M8.5 4.5a2 2 0 1 1 4 0 2 2 0 0 1-4 0zM7.5 26.5a3 3 0 0 0 5.69 0"/><path fill="none" stroke="#fff" stroke-linecap="round" stroke-linejoin="round" stroke-miterlimit="50" d="M5.68 7.5c-1.09.95-2.71 3.12-2.71 7.69 0 6.84-2.47 7-2.47 9s6.57 2.5 10.47 2.5c3.9 0 10.5-.6 10.5-2.56s-2.5-2.12-2.5-8.94c0-4.56-1.64-6.73-2.74-7.67M4.6 15.5c0 4.65-1 6.65-2.1 8.29"/></svg>