<svg xmlns="http://www.w3.org/2000/svg" width="30" height="24" viewBox="0 0 30 24"><path fill="none" stroke="#fff" stroke-linecap="round" stroke-linejoin="round" stroke-miterlimit="50" d="M18.5 10.51s7.28-.25 7.5 1.5M23.5 9.5l-4-1.5 4-2.5"/><path fill="none" stroke="#fff" stroke-linecap="round" stroke-linejoin="round" stroke-miterlimit="50" d="M18.5 11.67c1.67 2.42 3.7 3.83 6.63 3.83 2.93 0 4.35-1.68 4.35-3.5s-1-3.21-1-4 1-2.26 1-4c0-1.74-1.42-3.5-4.35-3.5-2.93 0-4.85 2.15-6.38 4.21M11 5s-7.28.25-7.5-1.5M6.5 6.5l4 1.5-4 2.5"/><path fill="none" stroke="#fff" stroke-linecap="round" stroke-linejoin="round" stroke-miterlimit="50" d="M11.48 4.33C9.81 1.91 7.78.5 4.85.5 1.92.5.5 2.18.5 4s1 3.21 1 4-1 2.26-1 4c0 1.74 1.42 3.5 4.35 3.5 2.93 0 4.85-2.15 6.38-4.21"/><path fill="none" stroke="#fff" stroke-linecap="round" stroke-linejoin="round" stroke-miterlimit="50" d="M10.5 8c0-3.71 2-5.5 4.5-5.5s4.5 1.79 4.5 5.5-2 5.5-4.5 5.5-4.5-1.79-4.5-5.5zM14.5 13.5c1.73 1.66 1.5 10 1.5 10l3-4c1.43.87 2.77 1.87 4 3 0-2.65-1.33-6.23-2.05-8"/><path fill="none" stroke="#fff" stroke-linecap="round" stroke-linejoin="round" stroke-miterlimit="50" d="M8.79 13.98c-.6 1.39-2.29 5.54-2.29 8.52a25.47 25.47 0 0 1 4-3l3 4s-.23-8.34 1.5-10"/></svg>