<svg xmlns="http://www.w3.org/2000/svg" width="22" height="30" viewBox="0 0 22 30"><path fill="none" stroke="#fff" stroke-linecap="round" stroke-linejoin="round" stroke-miterlimit="50" d="M11.5 9a.5.5 0 1 1 1 0 .5.5 0 0 1-1 0zM12.5 15a.5.5 0 1 1 1 0 .5.5 0 0 1-1 0zM8.5 20a.5.5 0 1 1 1 0 .5.5 0 0 1-1 0zM14.5 22a.5.5 0 1 1 1 0 .5.5 0 0 1-1 0zM9 25.5c-.18 1.47-.45 3.14-1.5 4h7c-1.05-.86-1.32-2.53-1.5-4z"/><path fill="none" stroke="#fff" stroke-linecap="round" stroke-linejoin="round" stroke-miterlimit="50" d="M9.55 3.5L4.5 11h4l-6 7h4l-6 7h21l-6-7h4l-6-7h4l-5.05-7.5-.01.01"/><path fill="none" stroke="#fff" stroke-linecap="round" stroke-linejoin="round" stroke-miterlimit="50" d="M10.5.5l.89 1.81 2.11.45-1.56 1.25.34 1.99-1.78-.94L8.72 6l.34-1.99L7.5 2.76l2.11-.45z"/></svg>