<svg xmlns="http://www.w3.org/2000/svg" width="26" height="26.9" viewBox="0 0 26 26.9"><path fill="none" stroke="#fff" stroke-linecap="round" stroke-linejoin="round" stroke-miterlimit="50" d="M14.5 16.9a.5.5 0 1 1 1 0 .5.5 0 0 1-1 0zM8.5 10.9a.5.5 0 1 1 1 0 .5.5 0 0 1-1 0zM3.5 5.9a.5.5 0 1 1 1 0 .5.5 0 0 1-1 0zM19.5 21.9a.5.5 0 1 1 1 0 .5.5 0 0 1-1 0zM1.5 7.4c1 .5 1.77.28 2.93 1.44 1.52 1.52.65 2.38 2.17 3.9s2.38.65 3.9 2.16c1.52 1.5.65 2.38 2.16 3.9 1.51 1.52 2.38.65 3.9 2.16 1.16 1.16.92 1.94 1.43 2.92M22.01 19.9c-1.12-.76-1.93-.36-3.18-1.62-1.47-1.47-.63-2.3-2.1-3.77-1.47-1.47-2.3-.63-3.76-2.1-1.46-1.45-.64-2.33-2.09-3.75-1.45-1.42-2.29-.58-3.76-2.1C5.87 5.33 6.27 4.53 5.5 3.4"/><path fill="none" stroke="#fff" stroke-linecap="round" stroke-linejoin="round" stroke-miterlimit="50" d="M.5 14.4a12 12 0 1 1 24 0 12 12 0 0 1-24 0z"/><path fill="none" stroke="#fff" stroke-linecap="round" stroke-linejoin="round" stroke-miterlimit="50" d="M22.5 8.15l2.25-2.26a16.32 16.32 0 0 0-1.89-2.5M22.25 3.29c-.77-.71-1.6-1.34-2.49-1.9L17.5 3.66"/><path fill="none" stroke="#fff" stroke-linecap="round" stroke-linejoin="round" stroke-miterlimit="50" d="M22.62 3.4A1.52 1.52 0 0 0 24.11.85a1.53 1.53 0 0 0-2.55 1.49c.37.34.72.7 1.06 1.06z"/></svg>