<svg xmlns="http://www.w3.org/2000/svg" width="26" height="26" viewBox="0 0 26 26"><path fill="none" stroke="#fff" stroke-linecap="round" stroke-linejoin="round" stroke-miterlimit="50" d="M24.5 7.5v18h-23v-18M15.1 2.5H9.5M20.5 7.5h4.47v-5h-4.04M4.54 2.5H.5v5h4.47M14.5 25V10.5M11.5 10.5V25"/><path fill="none" stroke="#fff" stroke-linecap="round" stroke-linejoin="round" stroke-miterlimit="50" d="M10.2 7.25L8.5 11.5l2-1 .5 2 2-6"/><path fill="none" stroke="#fff" stroke-linecap="round" stroke-linejoin="round" stroke-miterlimit="50" d="M12.5 6.5l2 6 .53-2 1.97 1-1.7-4.25"/><path fill="none" stroke="#fff" stroke-linecap="round" stroke-linejoin="round" stroke-miterlimit="50" d="M13.5 6.11c1.1.9 3.38 2.5 5.78 2.39 1.5-.06 1.27-2.87 1.27-4s.91-4-.63-4c-1.38 0-4.06 1.23-5.94 2.88M11.34 3.38C9.46 1.73 6.78.5 5.4.5c-1.54 0-.63 2.88-.63 4s-.24 3.94 1.27 4c2.4.1 4.69-1.49 5.78-2.39"/><path fill="none" stroke="#fff" stroke-linecap="round" stroke-linejoin="round" stroke-miterlimit="50" d="M10.5 4.5a2 2 0 1 1 4 0 2 2 0 0 1-4 0z"/></svg>