<svg xmlns="http://www.w3.org/2000/svg" width="24" height="30" viewBox="0 0 24 30"><path fill="none" stroke="#fff" stroke-linecap="round" stroke-linejoin="round" stroke-miterlimit="50" d="M1.5 16.87s1.17-2.48 5.37-2.37c1.77.06 3.49.58 5 1.5M18.5 16.24c1.42-.02 2.83-.27 4.18-.74M7.5 13.5v2"/><path fill="#303c42" d="M19.5 9a.5.5 0 1 1 1 0 .5.5 0 0 1-1 0zM15.5 4a.5.5 0 1 1 1 0 .5.5 0 0 1-1 0zM10.5 5a.5.5 0 1 1 1 0 .5.5 0 0 1-1 0zM7.5 3a.5.5 0 1 1 1 0 .5.5 0 0 1-1 0zM2.5 8a.5.5 0 1 1 1 0 .5.5 0 0 1-1 0z"/><path fill="none" stroke="#fff" stroke-linecap="round" stroke-linejoin="round" stroke-miterlimit="50" d="M1.77 18.52l-.52 4.21a2 2 0 0 0 .3 3.32c2.84 2.12 4.59 3.18 9.48 3.18 4.89 0 6.64-1.06 9.47-3.18a2 2 0 0 0 .3-3.32l-.5-4.23M3.5 24.5c2 1.5 3.25 2.34 5.75 2.65M16 10l.5-2.5h-3L14 10M7.5 6.5l-3 7h6z"/><path fill="none" stroke="#fff" stroke-linecap="round" stroke-linejoin="round" stroke-miterlimit="50" d="M.5 12a11.5 11.5 0 1 1 23 0 11.5 11.5 0 0 1-23 0z"/><path fill="none" stroke="#fff" stroke-linecap="round" stroke-linejoin="round" stroke-miterlimit="50" d="M13.2 10.5a2 2 0 0 0 .26 3.2 3 3 0 1 0 2.09 0 2 2 0 0 0 .26-3.2M12.5 10.5h5"/></svg>