<svg xmlns="http://www.w3.org/2000/svg" width="27" height="30" viewBox="0 0 27 30"><path fill="none" stroke="#fff" stroke-linecap="round" stroke-linejoin="round" stroke-miterlimit="50" d="M18.5 25.72l.59-1.22M21.5 22.11l1.19-.61M9.1 25.72l-.6-1.22M4.5 21.5l1.19.6M4.5 11.11l1.19-.61M21.5 9.5l.59 1.22M11.2 7.25L9.5 11.5l2-1 .5 2 2-6"/><path fill="none" stroke="#fff" stroke-linecap="round" stroke-linejoin="round" stroke-miterlimit="50" d="M13.5 6.5l2 6 .53-2 1.97 1-1.7-4.25"/><path fill="none" stroke="#fff" stroke-linecap="round" stroke-linejoin="round" stroke-miterlimit="50" d="M14.5 6.11c1.1.89 3.38 2.49 5.82 2.39 1.5-.06 1.27-2.87 1.27-4s.91-4-.63-4c-1.38 0-4.06 1.23-5.94 2.88M12.34 3.38C10.46 1.73 7.78.5 6.4.5c-1.54 0-.63 2.88-.63 4S5.53 8.44 7 8.5c2.4.1 4.69-1.49 5.78-2.39"/><path fill="none" stroke="#fff" stroke-linecap="round" stroke-linejoin="round" stroke-miterlimit="50" d="M11.5 4.5a2 2 0 1 1 4 0 2 2 0 0 1-4 0z"/><path fill="none" stroke="#fff" stroke-linecap="round" stroke-linejoin="round" stroke-miterlimit="50" d="M5 6.5a12.51 12.51 0 0 0 8 22.1 12.49 12.49 0 0 0 8-22.1M15.5 24.17a7.5 7.5 0 0 0 5.39-5.67M6.5 18.5a7.5 7.5 0 0 0 5.39 5.67M9.4 10.5a7.52 7.52 0 0 0-2.9 3.89M14.55 9.58a6.4 6.4 0 0 0-2.05 0M20.4 14.39a7.52 7.52 0 0 0-2.9-3.89"/><path fill="none" stroke="#fff" stroke-linecap="round" stroke-linejoin="round" stroke-miterlimit="50" d="M1.5 16.5a3 3 0 1 1 6 0 3 3 0 0 1-6 0zM20.5 16.5a3 3 0 1 1 6 0 3 3 0 0 1-6 0zM10.5 26.5a3 3 0 1 1 6 0 3 3 0 0 1-6 0z"/></svg>