<svg xmlns="http://www.w3.org/2000/svg" width="26" height="26" viewBox="0 0 26 26"><path fill="none" stroke="#fff" stroke-linecap="round" stroke-linejoin="round" stroke-miterlimit="50" d="M.5 2v9.85c.01.42.18.81.49 1.09l12.15 11.7a3.07 3.07 0 0 0 4.28-.04l7-7a3.62 3.62 0 0 0 1.07-2.6c0-.96-.38-1.88-1.06-2.56L12.93.94A1.5 1.5 0 0 0 11.87.5H1.99A1.5 1.5 0 0 0 .5 2z"/><path fill="none" stroke="#fff" stroke-linecap="round" stroke-linejoin="round" stroke-miterlimit="50" d="M2.5 4.5a2 2 0 1 1 4 0 2 2 0 0 1-4 0zM14.74 14.74L10.5 10.5M14.5 15.91l.35-1.06 1.06-.35M10.91 9.5l-.35 1.06-1.06.35M15.3 11.5l-5.8 1.56M16.24 12.43l-.74-.84.22-1.09M8.5 12.5l.74.84-.22 1.09M13.06 9.5l-1.56 5.8M14.43 9.02l-1.09.22-.84-.74M10.5 15.72l1.09-.22.84.74"/></svg>