<svg xmlns="http://www.w3.org/2000/svg" width="24" height="30" viewBox="0 0 24 30"><path fill="none" stroke="#fff" stroke-linecap="round" stroke-linejoin="round" stroke-miterlimit="50" d="M9.5 27.5c1.27.26 3.05.61 4.59.88M1.5 5.5v13.03M18.39 16.86l-1.81-1.26a2.55 2.55 0 0 1-1.08-2.1v-9M20.42 18.64l-1.65-1.14-4.27 11.23c.96.19 1.93.33 2.9.41a5.65 5.65 0 0 0 5.52-5.75 5.8 5.8 0 0 0-2.5-4.75zM.5 18.5v.47a9 9 0 0 0 7.34 8.85l1.65.34v-.21A9.49 9.49 0 0 0 .5 18.5z"/><path fill="none" stroke="#fff" stroke-linecap="round" stroke-linejoin="round" stroke-miterlimit="50" d="M.5 2C.5 1.17 1.17.5 2 .5h14c.83 0 1.5.67 1.5 1.5v2c0 .83-.67 1.5-1.5 1.5H2A1.5 1.5 0 0 1 .5 4z"/></svg>